<?xml version="1.0" standalone="no"?>
<!DOCTYPE svg PUBLIC "-//W3C//DTD SVG 1.1//EN" "http://www.w3.org/Graphics/SVG/1.1/DTD/svg11.dtd" >
<svg xmlns="http://www.w3.org/2000/svg">
<metadata>
Created by FontForge 20120731 at Wed Nov  9 09:43:49 2016
 By admin
</metadata>
<defs>
<font id="iconfont" horiz-adv-x="1024" >
  <font-face 
    font-family="iconfont"
    font-weight="500"
    font-stretch="normal"
    units-per-em="1024"
    panose-1="2 0 6 3 0 0 0 0 0 0"
    ascent="896"
    descent="-128"
    x-height="792"
    bbox="0 -161 1024 896"
    underline-thickness="0"
    underline-position="0"
    unicode-range="U+0078-E68F"
  />
<missing-glyph 
 />
    <glyph glyph-name=".notdef" 
 />
    <glyph glyph-name=".notdef" 
 />
    <glyph glyph-name=".null" horiz-adv-x="0" 
 />
    <glyph glyph-name="nonmarkingreturn" horiz-adv-x="341" 
 />
    <glyph glyph-name="x" unicode="x" horiz-adv-x="1001" 
d="M281 543q-27 -1 -53 -1h-83q-18 0 -36.5 -6t-32.5 -18.5t-23 -32t-9 -45.5v-76h912v41q0 16 -0.5 30t-0.5 18q0 13 -5 29t-17 29.5t-31.5 22.5t-49.5 9h-133v-97h-438v97zM955 310v-52q0 -23 0.5 -52t0.5 -58t-10.5 -47.5t-26 -30t-33 -16t-31.5 -4.5q-14 -1 -29.5 -0.5
t-29.5 0.5h-32l-45 128h-439l-44 -128h-29h-34q-20 0 -45 1q-25 0 -41 9.5t-25.5 23t-13.5 29.5t-4 30v167h911zM163 247q-12 0 -21 -8.5t-9 -21.5t9 -21.5t21 -8.5q13 0 22 8.5t9 21.5t-9 21.5t-22 8.5zM316 123q-8 -26 -14 -48q-5 -19 -10.5 -37t-7.5 -25t-3 -15t1 -14.5
t9.5 -10.5t21.5 -4h37h67h81h80h64h36q23 0 34 12t2 38q-5 13 -9.5 30.5t-9.5 34.5q-5 19 -11 39h-368zM336 498v228q0 11 2.5 23t10 21.5t20.5 15.5t34 6h188q31 0 51.5 -14.5t20.5 -52.5v-227h-327z" />
    <glyph glyph-name="daimawenjian" unicode="&#xe66f;" 
d="M742 757q28 -25 44.5 -42t25 -28.5t10.5 -20t2 -14.5v-16h-150q-11 0 -19 7.5t-13 18t-7.5 21t-2.5 17.5v126h2q9 0 17 -2t20 -9.5t29 -21.5t42 -36zM567 698q0 -19 6.5 -41.5t19.5 -41.5t33.5 -32t48.5 -13h149v-513q0 -29 -11.5 -52.5t-31 -40.5t-43 -26.5t-46.5 -9.5
h-441q-20 0 -43 11.5t-43 30t-33 42.5t-13 49v633q0 22 10 45.5t27 42.5t38.5 31.5t45.5 12.5h327v-128zM485 237q13 12 14 32.5t-12 31.5l-168 169q-12 12 -30 12t-30 -12q-12 -13 -12 -31t12 -30l137 -140l-137 -138q-12 -12 -12 -30t12 -31t30 -13t30 13zM695 123h-192
v-65h192v65z" />
    <glyph glyph-name="caidan" unicode="&#xe612;" horiz-adv-x="1000" 
d="M71 785h118v-117h-118v117zM311 785h633v-117h-633v117zM71 462h118v-118h-118v118zM311 462h633v-118h-633v118zM71 159h118v-118h-118v118zM311 159h633v-118h-633v118z" />
    <glyph glyph-name="gengduo" unicode="&#xe613;" 
d="M169 490q-43 0 -73.5 -30.5t-30.5 -74t30.5 -74t73.5 -30.5t73.5 30.5t30.5 74t-30.5 74t-73.5 30.5zM501.5 490q-43.5 0 -74 -30.5t-30.5 -74t30.5 -74t74 -30.5t74 30.5t30.5 74t-30.5 74t-74 30.5zM854.5 490q-43.5 0 -74 -30.5t-30.5 -74t30.5 -74t74 -30.5t74 30.5
t30.5 74t-30.5 74t-74 30.5z" />
    <glyph glyph-name="fangxingtingzhi" unicode="&#xe650;" 
d="M357 440q0 6 4.5 10.5t10.5 4.5h277q7 0 11.5 -4.5t4.5 -10.5v-277q0 -7 -4.5 -11.5t-11.5 -4.5h-277q-6 0 -10.5 4.5t-4.5 11.5v277v0zM955 704q0 17 -12 29t-30 12h-805q-17 0 -29 -12t-12 -29v-805q0 -18 12 -30t29 -12h805q18 0 30 12t12 30v805v0zM853 -28
q0 -6 -3.5 -9.5t-9.5 -3.5h-658q-6 0 -10 3.5t-4 9.5v658q0 6 4 10t10 4h658q6 0 9.5 -4t3.5 -10v-658v0z" />
    <glyph glyph-name="kaishi" unicode="&#xe651;" 
d="M512 748q-91 0 -174 -35.5t-143 -95.5t-95.5 -143t-35.5 -174t35.5 -174t95.5 -143t143 -95.5t174 -35.5t174 35.5t143 95.5t95.5 143t35.5 174t-35.5 174t-95.5 143t-143 95.5t-174 35.5zM714 287l-321 -194q-8 -4 -15 0.5t-7 13.5v386q0 9 7 13.5t15 0.5l321 -194
q7 -4 7 -13t-7 -13z" />
    <glyph glyph-name="jia" unicode="&#xe65e;" 
d="M681 412h-141v141q0 11 -8 19.5t-20 8.5t-20 -8.5t-8 -19.5v-141h-141q-11 0 -19.5 -8t-8.5 -20t8.5 -20t19.5 -8h141v-141q0 -11 8 -19.5t20 -8.5t20 8.5t8 19.5v141h141q11 0 19.5 8t8.5 20t-8.5 20t-19.5 8zM850 834h-676q-46 0 -79 -33t-33 -79v-676q0 -46 33 -79
t79 -33h676q46 0 79 33t33 79v676q0 46 -33 79t-79 33zM906 46q0 -23 -16.5 -39.5t-39.5 -16.5h-676q-23 0 -39.5 16.5t-16.5 39.5v676q0 23 16.5 39.5t39.5 16.5h676q23 0 39.5 -16.5t16.5 -39.5v-676z" />
    <glyph glyph-name="daoru" unicode="&#xe66b;" 
d="M735 437q2 2 1 5t-5 3h-137v225q0 6 -4.5 10.5t-10.5 4.5h-134q-6 0 -10.5 -4.5t-4.5 -10.5v-225h-137q-4 0 -5 -3t1 -5l213 -197q4 -4 10 -4t10 4l213 197v0zM946 187l-133 102q-14 11 -31 11h-77l127 -128l-128 1l-64 -93h-257l-63 93l-127 -1l128 128h-79
q-17 0 -31 -11l-133 -102q-14 -11 -9 -28l54 -162q2 -7 8.5 -12t13.5 -5h735q7 0 13.5 5t8.5 12l53 162q5 17 -9 28z" />
    <glyph glyph-name="chaxun" unicode="&#xe665;" 
d="M934 -19l-213 214q-1 1 -8 6q57 88 57 193q0 96 -47 178t-128 129t-176.5 47t-176.5 -47t-128 -129t-47 -178t47 -177.5t128 -129t177 -47.5q104 0 191 57q5 -6 6 -8l213 -214q22 -22 52.5 -22t52 22t21.5 53t-21 53zM419 152q-100 0 -170.5 71t-70.5 171t70.5 171
t170 71t170 -71t70.5 -171t-70.5 -171t-169.5 -71v0z" />
    <glyph glyph-name="shuaxin" unicode="&#xe68f;" 
d="M884 127v0q62 135 24 277q-21 78 -71 143.5t-122 106.5l43 94l-247 -65l110 -230l46 98q100 -61 131 -176q28 -103 -17 -200q-28 -62 -78.5 -104t-113.5 -59q-18 -5 -37 -7l51 -106q10 3 15 4q86 23 156.5 81.5t109.5 142.5v0zM359 45q-102 61 -133 177q-28 103 17 200
q28 62 79 104t114 59q20 5 41 8l-51 106q-11 -3 -20 -5q-86 -23 -156.5 -81.5t-109.5 -142.5q-62 -135 -23 -277v-1q21 -78 71.5 -143.5t123.5 -106.5l-41 -90l247 66l-112 230l-47 -103v0zM359 45z" />
    <glyph glyph-name="warn" unicode="&#xe635;" 
d="M511 736q-91 0 -174 -35.5t-142.5 -95.5t-95 -143t-35.5 -174t35.5 -173.5t95 -142.5t142.5 -95.5t174 -35.5t174 35.5t143 95.5t95.5 142.5t35.5 173.5t-35.5 174t-95.5 143t-143 95.5t-174 35.5zM509 9q-23 1 -40 18t-18 40q0 26 18 44.5t44 17.5q24 -1 40.5 -17.5
t17.5 -40.5q1 -26 -17.5 -44t-44.5 -18zM572 235q0 -23 -15 -39.5t-36 -16.5h-18q-21 0 -35.5 16.5t-14.5 39.5l-22 277q0 23 15 39t36 16h59q21 0 35.5 -16t14.5 -39z" />
    <glyph glyph-name="daochu" unicode="&#xe66c;" 
d="M292 541q-3 -3 -1.5 -6t4.5 -3h137l-1 -233q0 -6 4.5 -10.5t10.5 -4.5h134q6 0 10.5 4.5t4.5 10.5v233h136q4 0 5 3.5t-1 5.5l-212 204q-4 4 -10 4t-10 -4l-211 -204v0zM944 233l-132 106q-14 11 -31 11h-77l128 -132h-128l-65 -96h-255l-62 96h-127l127 132h-79
q-17 0 -31 -11l-132 -106q-14 -11 -9 -28l53 -169q3 -7 9.5 -12t13.5 -5h731q7 0 13.5 5t9.5 12l52 169q5 17 -9 28v0z" />
    <glyph glyph-name="shanchu" unicode="&#xe617;" 
d="M830 705q31 0 51 -10.5t32 -25.5t16.5 -33t4.5 -34q0 -7 -0.5 -11t-0.5 -7v-6h-68v-539q0 -20 -8.5 -39t-24 -33.5t-37.5 -23t-51 -8.5h-460q-27 0 -50.5 8t-40.5 23t-27 36t-10 48v528h-64q-1 1 -1 5q-1 5 -1 32q0 13 6 29.5t18.5 30t32 23t46.5 9.5h92v62q0 27 18.5 46
t45.5 19h323q36 0 50 -19t14 -46v-63q22 -1 46 -1h48zM349 705h323v64h-323v-64zM317 56q33 0 33 42v476h-64v-476q0 -22 6.5 -32t24.5 -10v0v0zM512 57q18 0 24 9.5t6 31.5v476h-64v-476q0 -41 34 -41v0zM706 59q19 0 25 9.5t6 31.5v474h-65v-474q0 -41 34 -41v0z" />
    <glyph glyph-name="xiajiantou" unicode="&#xe60d;" 
d="M533 164v0v0l205 203q7 7 7 17.5t-7 17.5t-17.5 7t-17.5 -7l-187 -186l-186 188q-7 7 -17.5 7t-18 -7t-7.5 -17.5t8 -17.5l202 -205h0.5h0.5q7 -7 17.5 -7.5t17.5 7.5z" />
    <glyph glyph-name="grid" unicode="&#xe620;" 
d="M878 525q5 0 9.5 4t4.5 10t-4.5 10t-9.5 4h-211v211q0 6 -4.5 10t-10 4t-9.5 -4t-4 -10v-211h-254v211q0 6 -4 10t-9.5 4t-10 -4t-4.5 -10v-211h-211q-5 0 -9.5 -4t-4.5 -10t4.5 -10t9.5 -4h211v-253h-211q-5 0 -9.5 -4.5t-4.5 -10t4.5 -10t9.5 -4.5h211v-239
q0 -6 4.5 -10t10 -4t9.5 4t4 10v239h254v-239q0 -6 4 -10t9.5 -4t10 4t4.5 10v239h211q5 0 9.5 4.5t4.5 10t-4.5 10t-9.5 4.5h-211v253h211zM639 272h-254v253h254v-253zM948 -24v816q0 17 -12.5 29.5t-29.5 12.5h-788q-17 0 -29.5 -12.5t-12.5 -29.5v-816q0 -17 12.5 -29.5
t29.5 -12.5h788q17 0 29.5 12.5t12.5 29.5zM104 -24v816q0 6 4 10t10 4h788q6 0 10 -4t4 -10v-816q0 -6 -4 -10t-10 -4h-788q-6 0 -10 4t-4 10z" />
    <glyph glyph-name="danchu" unicode="&#xe631;" 
d="M932 244q-9 0 -16 -7t-7 -16v-117q0 -19 -13.5 -32.5t-33.5 -13.5h-699q-19 0 -32.5 13.5t-13.5 32.5v560q0 19 13.5 32.5t32.5 13.5h257q9 0 16 7t7 16.5t-7 16.5t-16 7h-257q-38 0 -65.5 -27.5t-27.5 -65.5v-560q0 -38 27.5 -65.5t65.5 -27.5h699q39 0 66.5 27.5
t27.5 65.5v117q0 9 -7 16t-17 7v0zM950 749l-3 3q-6 4 -13 5h-2h-326q-10 0 -16.5 -7t-6.5 -16.5t6.5 -16.5t16.5 -7h270l-473 -473q-7 -7 -7 -16.5t7 -16.5t16.5 -7t16.5 7l473 473v-270q0 -9 7 -16t16.5 -7t16.5 7t7 16v326v0q0 9 -6 16z" />
    <glyph glyph-name="guanbi" unicode="&#xe600;" 
d="M519.5 824q-89.5 0 -171 -35t-140.5 -94t-93.5 -140t-34.5 -170.5t34.5 -171t93.5 -140.5t140.5 -94t171 -35t170.5 35t140 94t94 140.5t35 171t-35 170.5t-94 140t-140 94t-170.5 35zM705 199v0q-9 -9 -22 -9t-22 9l-142 141l-141 -142v0q-9 -9 -22 -9t-22 9.5t-9 22.5
t9 22l141 141l-141 141q-10 9 -10 22t10 22v0q9 10 22 10t22 -10l141 -141l141 142v0q9 9 22 9t22.5 -9t9.5 -22t-9 -23l-142 -141l142 -141q9 -9 9 -22t-9 -22z" />
    <glyph glyph-name="zuojiantou" unicode="&#xe644;" 
d="M784 478l-125 1q-14 0 -23.5 9.5t-9.5 23.5v65q0 27 -19 46t-46 19q-21 0 -39 -13v0l-327 -271q-24 -24 -24 -58t24 -58l327 -272q18 -12 39 -12q27 0 46 19t19 46v65q0 13 9.5 23t23.5 10h125q26 0 45 19t19 46v227q0 27 -19 46t-45 19z" />
    <glyph glyph-name="iconfont61" unicode="&#xe649;" 
d="M152 24q-62 0 -82 37t13 89l348 542q33 52 81 52t81 -52l348 -542q33 -52 13 -89t-82 -37h-720z" />
    <glyph glyph-name="tianjia" unicode="&#xe602;" 
d="M675 329h-127v127q0 15 -10.5 25.5t-25.5 10.5t-26 -10.5t-11 -25.5v-127h-127q-15 0 -25.5 -11t-10.5 -26t10.5 -25.5t25.5 -10.5h127v-127q0 -15 11 -26t26 -11t25.5 11t10.5 26v127h127q15 0 25.5 10.5t10.5 25.5t-10.5 26t-25.5 11v0zM511 747q-92 0 -176 -36
t-145 -97t-97 -145t-36 -176.5t36 -176.5t97 -144.5t145 -96.5t176.5 -36t176.5 36t144.5 96.5t96.5 144.5t36 176.5t-36 176.5t-96.5 145t-144.5 97t-177 36v0zM511 -105q-107 0 -198.5 53.5t-145 145t-53.5 199t53.5 199t145 145t199 53.5t199 -53.5t145 -145t53.5 -199
t-53.5 -199t-145 -145t-199.5 -53.5v0zM511 -105z" />
    <glyph glyph-name="yidong" unicode="&#xe618;" 
d="M800 544q24 0 92 -68t68 -92t-68 -92t-92 -68q-14 0 -22 8t-9 16l-1 8v256q0 3 1 8.5t9 14.5t22 9v0zM768 416v-64h-224v-224h-64v224h-224v64h224v224h64v-224h224zM672 672q0 -14 -8 -22t-16 -9l-8 -1h-256q-3 0 -8.5 1t-14.5 9t-9 22q0 24 68 92t92 68t92 -68t68 -92
v0zM640 128q3 0 8.5 -1t14.5 -9t9 -22q0 -24 -68 -92t-92 -68t-92 68t-68 92q0 14 8 22t16 9l8 1h256zM256 352v-96q0 -3 -1 -8.5t-9 -14.5t-22 -9q-24 0 -92 68t-68 92t68 92t92 68q14 0 22 -8t9 -16l1 -8v-160zM256 352z" />
    <glyph glyph-name="fix_passed" unicode="&#xe668;" 
d="M466 -27h-243q-24 0 -41.5 17.5t-17.5 41.5v653q0 24 17.5 41.5t41.5 17.5h72q8 0 14 5.5t6 14t-6 14t-14 5.5h-72q-41 0 -69.5 -29t-28.5 -69v-652q0 -41 28.5 -70t69.5 -29h283q-22 18 -40 39v0zM899 685q0 40 -28.5 69t-69.5 29h-71q-9 0 -14.5 -5.5t-5.5 -14t5.5 -14
t14.5 -5.5h71q24 0 41.5 -17.5t17.5 -41.5v-219q21 -10 39 -23v242zM705 668h-386q-19 0 -31.5 -13t-12.5 -31.5t12.5 -31t31.5 -12.5h386q19 0 31.5 13t12.5 31t-12.5 31t-31.5 13zM630 764q0 29 -20.5 49.5t-50.5 20.5h-94q-30 0 -50.5 -20.5t-20.5 -49.5v-100h236v100z
M512 701q-19 0 -33 14t-14 33t14 32.5t33 13.5t33 -13.5t14 -32.5t-14 -33t-33 -14zM648 490h-329q-19 0 -31.5 -13t-12.5 -31t12.5 -31t31.5 -13h171q66 67 158 88zM720 417q-100 0 -170.5 -70.5t-70.5 -171t70.5 -171t170.5 -70.5t171 70.5t71 171t-71 171t-171 70.5z
M888 233l-186 -185q-9 -9 -21.5 -9t-21.5 9l-106 105q-9 9 -9 22t9 22t22 9t22 -9l84 -84l163 163q9 9 22 9t22 -9q9 -8 9 -21t-9 -22z" />
    <glyph glyph-name="guanbi1" unicode="&#xe63a;" 
d="M512 823q-117 0 -216.5 -58t-157.5 -157.5t-58 -216.5t58 -216.5t157.5 -157.5t216.5 -58t216.5 58t157.5 157.5t58 216.5t-58 216.5t-157.5 157.5t-216.5 58zM721 234l-53 -52l-156 157l-156 -157l-53 52l157 157l-157 156l52 53l157 -157l156 157l53 -53l-157 -156z
" />
    <glyph glyph-name="jilu" unicode="&#xe666;" 
d="M797 644h-78v38q0 19 -13.5 32t-32.5 13h-55q-6 40 -36 67t-71 27t-71 -27t-36 -67h-55q-19 0 -32.5 -13t-13.5 -32v-38h-78q-23 0 -39.5 -16.5t-16.5 -39.5v-597q0 -23 16.5 -39.5t39.5 -16.5h572q23 0 39.5 16.5t16.5 39.5v597q0 23 -16.5 39.5t-39.5 16.5zM699 83
h-374v45h374v-45zM699 224h-374v44h374v-44zM699 365h-374v44h374v-44z" />
    <glyph glyph-name="androidnotificationsnone" unicode="&#xe60e;" 
d="M514 673q7 0 19.5 -2.5l22.5 -4.5l9 -2q73 -17 119.5 -77t46.5 -136v-273l36 -36h-510l36 36v273q0 76 46.5 136t119.5 77q38 9 51 9h4zM512 828q-28 0 -47 -19.5t-19 -47.5v-31q-96 -22 -158.5 -100.5t-62.5 -178.5v-244l-88 -89v-45h750v45l-88 89v244
q0 100 -62.5 178.5t-158.5 100.5v31q0 28 -19 47.5t-47 19.5v0zM600 29h-176q0 -37 26 -63t62 -26t62 26t26 63v0z" />
    <glyph glyph-name="zhengfangxing" unicode="&#xe661;" 
d="M384 428h256v-254h-256v254z" />
    <glyph glyph-name="tongbuicon" unicode="&#xe65b;" 
d="M506 828q91 0 174 -35.5t142.5 -95.5t95 -142.5t35.5 -173.5t-35.5 -173.5t-95 -142.5t-142.5 -95.5t-174 -35.5t-173.5 35.5t-142.5 95t-95.5 142.5t-35.5 174t35.5 173.5t95.5 142.5t142.5 95.5t173.5 35.5zM492 254h-7v0h-49v345q0 19 -14.5 32.5t-35 13.5t-35 -13.5
t-14.5 -32.5v-344h-56q-7 0 -12 -5q-12 -14 0 -27l1 -1l102 -102q6 -6 14 -6t14 6l101 101v1q6 6 6 13.5t-6 13.5q-3 4 -9 5zM743 540v0l-102 101q-5 6 -13.5 6t-14.5 -6l-102 -101v-1q-13 -13 0 -27q5 -5 12 -5h2h53v-344q0 -19 14.5 -33t35 -14t35.5 14t15 33v345h49
q3 -1 7 0q5 1 9 5q5 5 5 13t-5 14z" />
    <glyph glyph-name="dataflow-report" unicode="&#xe603;" horiz-adv-x="1053" 
d="M838 325zM347 774h375q12 0 21 8.5t9 20.5v21q0 12 -9 20.5t-21 8.5h-375q-12 0 -21 -8.5t-9 -20.5v-21q0 -12 9 -20.5t21 -8.5zM910 774h-109v-25q0 -12 -8.5 -21t-20.5 -9h-475q-12 0 -21 9t-9 21v25h-119q-10 0 -17.5 -7.5t-7.5 -18.5v-807q0 -11 7.5 -18.5t17.5 -7.5
h762q10 0 18 7.5t8 18.5v807q0 11 -8 18.5t-18 7.5zM488 33q0 -11 -8 -18.5t-18 -7.5h-126q-11 0 -18.5 7.5t-7.5 18.5v310q0 11 7.5 18.5t18.5 7.5h126q10 0 18 -7.5t8 -18.5v-310zM770 33q0 -11 -7.5 -18.5t-18.5 -7.5h-126q-11 0 -18.5 7.5t-7.5 18.5v482q0 10 7.5 17.5
t18.5 7.5h126q11 0 18.5 -7.5t7.5 -17.5v-482z" />
    <glyph glyph-name="iconfontshujuzidian" unicode="&#xe65a;" 
d="M680 2q-28 -13 -58 -17q-16 -2 -41 0h-2q-78 7 -129.5 64t-51.5 135q0 83 59 142q28 27 66.5 42.5t79.5 14.5q62 0 127 -42v282q0 13 -11 24t-24 11l-529 1q0 9 7.5 18t14.5 13l8 5h535q19 1 29 -9t11 -21l1 -11v-345q0 -15 17 -57.5t17 -67.5q0 -42 -18 -83l26 -22
l-1 621q0 16 -15.5 27t-24.5 10h-583q-25 0 -42.5 -8.5t-26 -20.5t-13 -24t-5.5 -20v-8v-742q0 -4 0.5 -6.5t2.5 -4t3.5 -2.5t5 -1.5t5.5 -0.5t6.5 0.5t7.5 0.5h634zM270 527h293v-41h-293v41zM913 -88l-180 180q29 41 29 92q1 67 -46.5 115t-115 48t-115 -47t-47.5 -114
q0 -66 45.5 -114.5t115.5 -46.5q36 1 61.5 10t32.5 17l180 -180q8 -9 20 -9t20 8.5t8 20t-8 20.5v0zM600 63q-51 0 -86.5 36t-35 86t36 85.5t86 35.5t86 -35.5t35.5 -86t-36 -86t-86 -35.5v0zM600 63z" />
    <glyph glyph-name="jian" unicode="&#xe65f;" 
d="M451 356h225q12 0 20 8t8 19.5t-8 19.5t-20 8v0h-225v-55zM485 411h-137q-12 0 -20 -8t-8 -19.5t8 -19.5t20 -8h137v55zM840 821h-656q-46 0 -78 -32t-32 -77v-657q0 -45 32 -77t78 -32h656q46 0 78 32t32 77v657q0 45 -32 77t-78 32v0zM895 55q0 -23 -16 -39t-39 -16
h-656q-23 0 -39 16t-16 39v657q0 22 16 38.5t39 16.5h656q23 0 39 -16.5t16 -38.5v-657zM895 55z" />
    <glyph glyph-name="guanbigongjulan" unicode="&#xe608;" 
d="M614 383l320 321q21 21 21 50.5t-21 50.5t-50.5 21t-50.5 -21l-321 -321l-321 321q-21 21 -50.5 21t-50.5 -21t-21 -50.5t21 -50.5l321 -321l-321 -321q-21 -21 -21 -50.5t21 -50.5t50.5 -21t50.5 21l321 320l321 -320q21 -21 50.5 -21t50.5 21t21 50.5t-21 50.5z" />
    <glyph glyph-name="fuzhi" unicode="&#xe660;" 
d="M717 806v-95h-523v-505h-92v509q0 18 7.5 34.5t19.5 29.5q13 13 29.5 20t35.5 7h523zM831 668q18 0 35 -7t29 -19q13 -12 20 -28.5t7 -35.5v-547q0 -19 -7 -35.5t-20 -29.5q-13 -12 -29.5 -19.5t-34.5 -7.5h-501q-18 0 -34.5 7.5t-29.5 19.5q-13 13 -19.5 29.5t-6.5 35.5
v547q0 19 6.5 35.5t19.5 28.5t29.5 19t34.5 7h501zM815 439v90h-472v-90h472zM816 302v91h-473v-91h473zM650 166v90h-307v-90h307z" />
    <glyph glyph-name="xia" unicode="&#xe663;" 
d="M535 69l415 416q10 9 10 22.5t-9.5 23t-23 9.5t-23.5 -9l-392 -392l-392 392q-10 9 -23.5 9t-23 -9.5t-9.5 -23t10 -22.5l415 -416q9 -9 22.5 -9t23.5 9v0zM535 69z" />
    <glyph glyph-name="shezhi" unicode="&#xe607;" 
d="M906 384v0l-72 16q-8 25 -21 51l39 65q12 20 13.5 40.5t-13.5 38.5l-40 40q-15 15 -39 15t-42 -13l-63 -40q-25 13 -51 22l-16 72q-4 22 -20.5 39t-38.5 17h-56q-22 0 -36.5 -17t-19.5 -39l-18 -72q-28 -9 -54 -23l-65 41q-18 13 -41 13q-25 0 -40 -15l-39 -40
q-15 -18 -14 -38.5t14 -40.5l40 -68q-12 -26 -19 -48l-72 -16q-22 -4 -39 -20.5t-17 -38.5v-56q0 -21 17 -36t39 -20l73 -18q7 -22 18 -45l-40 -68q-13 -19 -14 -39.5t14 -39.5l39 -39q15 -16 40 -16q23 0 41 13l65 41q27 -14 55 -23l17 -71q6 -23 20.5 -39.5t35.5 -16.5h56
q22 0 38.5 17t20.5 38l16 73q26 8 51 21l63 -40q18 -13 42 -13t39 16l40 39q15 19 13.5 39.5t-13.5 39.5l-39 65q12 24 20 48l72 18q23 5 39.5 20t16.5 36v56q0 22 -17 38.5t-38 20.5zM515 164q-56 0 -96 39.5t-40 95.5t40 95.5t96 39.5t95.5 -39.5t39.5 -95.5t-39.5 -95.5
t-95.5 -39.5z" />
    <glyph glyph-name="jiantou" unicode="&#xe609;" 
d="M320 -66q-26 0 -45 19t-19 45.5t19 45.5l340 340l-340 340q-19 19 -19 45.5t19 45.5t45.5 19t45.5 -19l386 -386q18 -18 18 -45t-18 -45l-386 -386q-19 -19 -46 -19v0z" />
    <glyph glyph-name="fuwenben" unicode="&#xe622;" 
d="M858 831h-692q-39 0 -66.5 -28t-27.5 -67v-717q0 -39 27.5 -66.5t66.5 -27.5h692q39 0 66.5 27.5t27.5 66.5v717q0 39 -27.5 67t-66.5 28zM900 2q0 -26 -26 -26h-724q-26 0 -26 26v751q0 26 26 26h120.5t234 -0.5t264.5 -0.5t105 1q26 2 26 -26v-751zM201 598h596v51
h-596v-51zM331 442h466v52h-466v-52zM383 287h414v52h-414v-52zM383 132h414v51h-414v-51z" />
    <glyph glyph-name="bangzhu" unicode="&#xe60b;" 
d="M512 787q81 0 154.5 -30.5t130.5 -87.5t87.5 -130.5t30.5 -154.5t-30.5 -154.5t-87.5 -130.5t-130.5 -87.5t-154.5 -30.5t-154.5 30.5t-130.5 87.5t-87.5 130.5t-30.5 154.5t30.5 154.5t87.5 130.5t130.5 87.5t154.5 30.5zM512 834q-90 0 -172 -34t-146 -98t-98 -146
t-34 -172t34 -172t98 -146t146 -98t172 -34t172 34t146 98t98 146t34 172t-34 172t-98 146t-146 98t-172 34v0v0zM636 605q-45 39 -116 39q-82 0 -129.5 -48t-47.5 -130v0q1 -13 10.5 -22t22.5 -9t22.5 9t10.5 22v0v1v0v0q0 123 107 123q42 0 69 -24t27 -61q0 -44 -50 -89
l-25 -22q-36 -32 -47 -56q-10 -24 -10 -78v0v-2q0 -13 9 -22t21 -9t21 8t10 20v0v12q0 54 52 97q88 71 88 137q0 64 -45 104v0zM471 152q0 17 12 29t29 12t29 -12t12 -29t-12 -29t-29 -12t-29 12t-12 29v0z" />
    <glyph glyph-name="xuanze" unicode="&#xe64b;" 
d="M812 834h-600q-62 0 -106 -44t-44 -106v-600q0 -62 44 -106t106 -44h600q62 0 106 44t44 106v600q0 62 -44 106t-106 44zM430 136l-243 243l90 91l153 -153l312 312l90 -90z" />
    <glyph glyph-name="weixuanze" unicode="&#xe64e;" 
d="M812 834h-600q-62 0 -106 -44t-44 -106v-600q0 -62 44 -106t106 -44h600q62 0 106 44t44 106v600q0 62 -44 106t-106 44zM887 84q0 -31 -22 -53t-53 -22h-600q-31 0 -53 22t-22 53v600q0 31 22 53t53 22h600q31 0 53 -22t22 -53v-600z" />
    <glyph glyph-name="jia1" unicode="&#xe63f;" 
d="M860 301h-275v-281q0 -34 -24 -59t-58.5 -25t-58.5 25t-24 59v281h-275q-35 0 -59 24.5t-24 59.5t24 59.5t59 24.5h275v281q0 35 24 59.5t58.5 24.5t58.5 -24.5t24 -59.5v-281h275q35 0 59 -24.5t24 -59.5t-24 -59.5t-59 -24.5z" />
    <glyph glyph-name="xuanze1" unicode="&#xe653;" 
d="M264 686v-667l171 171l125 -240l90 47l-120 231h232z" />
    <glyph glyph-name="fabu" unicode="&#xe63d;" horiz-adv-x="1058" 
d="M846 108l-378 116l378 436l-494 -436l-290 116l929 494zM468 -66v203l117 -58z" />
    <glyph glyph-name="iconfontshaixuanicon02" unicode="&#xe621;" 
d="M401 752h216v-40h-216v40zM832 752h-118v-40h118q20 0 34.5 -14.5t14.5 -34.5v-90v0h-738v90q0 20 14.5 34.5t34.5 14.5h118v40h-118q-37 0 -63 -26t-26 -63v-607q0 -37 26 -63t63 -26h640q37 0 63 26t26 63v607q0 37 -26 63t-63 26zM832 6h-640q-20 0 -34.5 15t-14.5 35
v477h739v0v-477q0 -20 -15 -35t-35 -15zM355 641v0q-12 0 -20.5 8.5t-8.5 20.5v125q0 12 8.5 20.5t20.5 8.5v0q12 0 20.5 -8.5t8.5 -20.5v-125q0 -12 -8.5 -20.5t-20.5 -8.5zM669 641v0q-12 0 -20.5 8t-8.5 21v124q0 12 8.5 20.5t20.5 8.5v0q12 0 20.5 -8.5t8.5 -20.5v-124
q0 -12 -8.5 -20.5t-20.5 -8.5zM625 341h-57q-5 0 -9 4t-4 9v57q0 5 4 9t9 4h57q5 0 9 -4t4 -9v-57q0 -5 -4 -9t-9 -4zM794 341h-57q-5 0 -9 4t-4 9v57q0 5 4 9t9 4h57q5 0 9 -4t4 -9v-57q0 -5 -4 -9t-9 -4zM287 227h-57q-5 0 -9 4t-4 9v57q0 5 4 9t9 4h57q5 0 9 -4t4 -9v-57
q0 -5 -4 -9t-9 -4zM456 227h-57q-5 0 -9 4t-4 9v57q0 5 4 9t9 4h57q5 0 9 -4t4 -9v-57q0 -5 -4 -9t-9 -4zM625 227h-57q-5 0 -9 4t-4 9v57q0 5 4 9t9 4h57q5 0 9 -4t4 -9v-57q0 -5 -4 -9t-9 -4zM794 227h-57q-5 0 -9 4t-4 9v57q0 5 4 9t9 4h57q5 0 9 -4t4 -9v-57q0 -5 -4 -9
t-9 -4zM287 113h-57q-5 0 -9 3.5t-4 9.5v56q0 6 4 9.5t9 3.5h57q5 0 9 -3.5t4 -9.5v-56q0 -6 -4 -9.5t-9 -3.5v0zM456 113h-57q-5 0 -9 3.5t-4 9.5v56q0 6 4 9.5t9 3.5h57q5 0 9 -3.5t4 -9.5v-56q0 -6 -4 -9.5t-9 -3.5v0zM625 113h-57q-5 0 -9 3.5t-4 9.5v56q0 6 4 9.5
t9 3.5h57q5 0 9 -3.5t4 -9.5v-56q0 -6 -4 -9.5t-9 -3.5v0z" />
    <glyph glyph-name="jingdianduanxin" unicode="&#xe636;" 
d="M837 122h-368l-263 -186v186h-24q-38 0 -65.5 27.5t-27.5 66.5v514q0 39 27.5 66.5t65.5 27.5h655q39 0 66 -27.5t27 -66.5v-514q0 -39 -27 -66.5t-66 -27.5zM276 193v-117l164 117h327q39 0 66 27t27 66v374q0 39 -27 66.5t-66 27.5h-514q-39 0 -66.5 -27.5t-27.5 -66.5
v-374q0 -24 18.5 -52t28.5 -28zM311 520q24 0 41 -17t17 -41.5t-17 -41.5t-41 -17t-41 17t-17 41.5t17 41.5t41 17zM521.5 520q24.5 0 41.5 -17t17 -41.5t-17 -41.5t-41.5 -17t-41.5 17t-17 41.5t17 41.5t41.5 17zM708.5 520q24.5 0 41.5 -17t17 -41.5t-17 -41.5t-41.5 -17
t-41.5 17t-17 41.5t17 41.5t41.5 17z" />
    <glyph glyph-name="0018" unicode="&#xe626;" 
d="M452 214q25 -33 60 -33t60 33l180 240q25 33 13 56.5t-53 23.5h-400q-41 0 -53 -23.5t13 -56.5zM112 734v0v-700q0 -21 14.5 -35.5t35.5 -14.5h700q21 0 35.5 14.5t14.5 35.5v700q0 21 -14.5 35.5t-35.5 14.5h-700q-21 0 -35.5 -14.5t-14.5 -35.5v0zM62 734q0 42 29 71
t71 29h700q42 0 71 -29t29 -71v-700q0 -42 -29 -71t-71 -29h-700q-42 0 -71 29t-29 71v700z" />
    <glyph glyph-name="toend" unicode="&#xe659;" 
d="M627 409q14 -11 14 -25q0 -12 -14 -23l-371 -233q-23 -14 -37 -5t-14 36v452q0 27 14 36t37 -5zM743 683q76 0 76 -59v-478q0 -59 -76 -59q-77 0 -77 59v478q0 59 77 59v0v0z" />
    <glyph glyph-name="xuanzedagou" unicode="&#xe63e;" 
d="M512 834q-92 0 -175 -35.5t-143.5 -96t-96 -143.5t-35.5 -175t35.5 -175t96 -143.5t143.5 -96t175 -35.5t175 35.5t143.5 96t96 143.5t35.5 175t-35.5 175t-96 143.5t-143.5 96t-175 35.5zM471 241v0l-41 -41l-163 164l40 40l123 -122l287 286l40 -41z" />
    <glyph glyph-name="yemian" unicode="&#xe614;" 
d="M909 787h-781q-22 0 -37.5 -15.5t-15.5 -37.5v-700q0 -22 15.5 -37.5t37.5 -15.5h781q22 0 37.5 15.5t15.5 37.5v700q0 22 -15.5 37.5t-37.5 15.5zM695 678q0 11 7.5 18.5t19.5 7.5h26q11 0 19 -7.5t8 -18.5v-31q0 -11 -8 -18.5t-19 -7.5h-26q-12 0 -19.5 7.5t-7.5 18.5
v31zM571 678q0 11 8 18.5t19 7.5h26q11 0 19 -7.5t8 -18.5v-31q0 -11 -8 -18.5t-19 -7.5h-26q-12 0 -19.5 7.5t-7.5 18.5v31zM898 45h-759v510h759v-510zM899 647q0 -11 -8 -18.5t-19 -7.5h-26q-12 0 -19.5 7.5t-7.5 18.5v31q0 11 7.5 18.5t19.5 7.5h26q11 0 19 -7.5
t8 -18.5v-31z" />
    <glyph glyph-name="daibiankuangwenben" unicode="&#xe623;" 
d="M218 588h88v-205h-29v-29h29h59h29v29h-29v205h88v-29h29v88h-29h-235h-29v-88h29v29zM218 588zM541 530h293v-59h-293v59v0zM541 530zM541 413h293v-59h-293v59v0zM541 413zM189 295h645v-58h-645v58v0zM189 295zM189 178h645v-58h-645v58v0zM189 178zM541 647h293v-59
h-293v59v0zM541 647zM961 -66h-900v899h900v-899zM97 -30h829v827h-829v-827z" />
    <glyph glyph-name="icondanxuanxiang" unicode="&#xe61c;" 
d="M510.5 832q-90.5 0 -173.5 -35.5t-142.5 -95t-95 -142.5t-35.5 -173.5t35.5 -173.5t95 -142.5t142.5 -95t173.5 -35.5t173.5 35.5t143 95t95 142.5t35 173.5t-35 173.5t-95 142.5t-143 95t-173.5 35.5zM511 50q-91 0 -168.5 45t-122 122t-44.5 168t44.5 168.5t122 122.5
t168.5 45t168 -45t122 -122.5t45 -168.5t-45 -168t-122 -122t-168 -45zM510.5 609q-92.5 0 -158 -65.5t-65.5 -158t65.5 -158t158 -65.5t158 65.5t65.5 158t-65.5 158t-158 65.5z" />
    <glyph glyph-name="icondanxuanxiangweixuanze" unicode="&#xe61d;" 
d="M510.5 832q-90.5 0 -173.5 -35.5t-142.5 -95t-95 -142.5t-35.5 -173.5t35.5 -173.5t95 -142.5t142.5 -95t173.5 -35.5t173.5 35.5t143 95t95 142.5t35 173.5t-35 173.5t-95 142.5t-143 95t-173.5 35.5zM511 50q-91 0 -168.5 45t-122 122t-44.5 168t44.5 168.5t122 122.5
t168.5 45t168 -45t122 -122.5t45 -168.5t-45 -168t-122 -122t-168 -45z" />
    <glyph glyph-name="jian1" unicode="&#xe640;" 
d="M192 448h640q26 0 45 -19t19 -45t-19 -45t-45 -19h-640q-27 0 -45.5 18.5t-18.5 45.5t18.5 45.5t45.5 18.5z" />
    <glyph glyph-name="dashujujiankongpingtai32" unicode="&#xe60c;" 
d="M512 132q-19 0 -32.5 13.5t-13.5 32.5t13.5 32.5t32.5 13.5t32.5 -13.5t13.5 -32.5t-13.5 -32.5t-32.5 -13.5v0v0zM512 132zM512 284q-16 0 -27.5 11.5t-11.5 27.5v288q0 16 11.5 27.5t27.5 11.5t27.5 -11.5t11.5 -27.5v-288q0 -16 -11.5 -27.5t-27.5 -11.5v0zM512 284z
M512 832q-122 0 -225 -60t-163 -163t-60 -225t60 -225t163 -163t225 -60t225 60t163 163t60 225t-60 225t-163 163t-225 60v0zM512 -4q-105 0 -194.5 52t-141.5 141.5t-52 194.5t52 194.5t141.5 141.5t194.5 52t194.5 -52t141.5 -141.5t52 -194.5t-52 -194.5t-141.5 -141.5
t-194.5 -52v0zM512 -4z" />
    <glyph glyph-name="fanhui" unicode="&#xe656;" 
d="M453 793l-389 -338l389 -337v227l66 16q203 38 303 -49q109 -96 61 -337q5 9 12 23.5t23.5 59.5t26.5 88t14 101t-6.5 107t-44.5 97.5t-89.5 81t-151 49.5t-221.5 10l7 201v0zM453 793z" />
    <glyph glyph-name="danxing" unicode="&#xe624;" 
d="M376 602h117v-436h-117v-39h272v39h-117v436h117v39h-272v-39zM742 832h-461q-90 0 -153.5 -63.5t-63.5 -154.5v-461q0 -90 63.5 -153.5t153.5 -63.5h461q91 0 154.5 63.5t63.5 153.5v461q0 91 -63.5 154.5t-154.5 63.5zM921 153q0 -73 -52.5 -125.5t-126.5 -52.5h-461
q-73 0 -125.5 52.5t-52.5 125.5v461q0 74 52.5 126.5t125.5 52.5h461q74 0 126.5 -52.5t52.5 -126.5v-461z" />
    <glyph glyph-name="fadajing" unicode="&#xe641;" horiz-adv-x="1025" 
d="M940 63l-214 215q-1 1 -8 6q58 89 58 194q0 97 -47.5 179t-129 129.5t-178 47.5t-178 -47.5t-129 -129.5t-47.5 -179t47.5 -179t129 -129.5t177.5 -47.5q105 0 193 58q5 -6 7 -8l214 -215q22 -22 52.5 -22t52.5 22t22 53t-22 53v0zM421.5 235q-100.5 0 -171.5 71t-71 172
t71 172.5t171.5 71.5t171.5 -71.5t71 -172.5t-71 -172t-171.5 -71z" />
    <glyph glyph-name="database" unicode="&#xe601;" 
d="M470 834h83h3.5t3.5 -1h13q3 0 5 -1q3 0 5 -0.5t6 -0.5h5h3h3q2 -1 7.5 -1.5t7.5 -0.5q5 -1 16.5 -2.5t17.5 -2.5q5 -1 15 -2.5t16 -2.5q46 -10 62 -16q3 -1 8.5 -2.5t7.5 -1.5q23 -8 45 -19q20 -10 25 -13q2 -2 7.5 -5.5t7.5 -4.5q1 -1 2.5 -2t3 -2.5t2.5 -1.5
q24 -19 32 -40q8 -19 6 -32v-2.5t-1 -2.5q-2 -10 -4 -14q-8 -21 -29 -37l-5 -5q-3 -2 -4 -2q-8 -7 -17 -12q-5 -4 -19 -11q-20 -10 -26 -12t-24 -9q-8 -3 -40 -12q-3 -1 -9.5 -2.5t-9.5 -2.5q-5 -1 -6 -1q-2 -1 -10.5 -2.5t-12.5 -2.5q-1 0 -11.5 -2t-16.5 -3q-3 0 -9 -1
q-4 -1 -12.5 -1.5t-11.5 -1.5q-5 0 -7 -0.5t-7 -1t-8 -0.5h-5q-7 -1 -14 -1q-2 0 -4 -1h-11q-9 0 -14 -1h-29h-11h-11q-15 0 -19 1h-13q-2 1 -17.5 2t-23.5 2q-6 0 -11 1q-4 1 -16.5 2.5t-19.5 2.5q-1 0 -4 0.5t-5 0.5q-5 2 -17 4l-18 3q-56 15 -77 23q-2 1 -9.5 4t-10.5 4
q-68 31 -89 73q-2 3 -4 10q0 1 -0.5 3t-0.5 3v7q0 16 2 21q0 2 1.5 5.5t1.5 5.5l6 9q10 15 20 23q1 1 5 4.5t6.5 5t7 5t5.5 4.5q8 5 23 12q1 1 3 2t3 2q1 0 16 7q5 2 24 9q14 5 18 6q2 1 8 3t10 3q19 5 23 6q2 0 5.5 0.5t5.5 1t34 7.5q2 0 7 0.5t7 1.5q5 1 14.5 2t14.5 2h3
h3q3 1 7.5 1t6.5 1h2.5h2.5t4.5 0.5t4.5 0.5h6.5t6.5 1q4 0 17 1v0zM135 607v0q2 -15 23 -30q35 -26 92 -45q22 -6 24 -7t6.5 -2t6.5 -2t5 -1.5t4 -0.5q3 -1 10 -2.5t10 -2.5q1 0 3 -0.5t3 -0.5q2 -1 7.5 -2t7.5 -2q5 -1 15 -2.5t15 -2.5q6 -1 18.5 -2.5t18.5 -2.5
q3 -1 8 -1.5t8 -0.5h1.5h2.5q3 -1 8.5 -1t7.5 -1q5 0 14.5 -0.5t14.5 -1.5h7h6h5h4q2 -1 22 -1q19 0 20.5 0.5t5 0.5h4.5h7h6q12 1 13 1h3q1 1 5.5 1h6.5q25 3 36 4q3 0 9.5 1t9.5 1q3 1 14 2.5t17 2.5q1 1 7 2l15 3l15 3q4 1 22.5 5.5t27.5 7.5q22 7 40 14q1 1 3 1.5t3 0.5
q6 2 16 7q0 1 2 1.5t3 0.5q28 15 41 24q14 11 20 22l2 4v2l1 3q0 1 1 0v-20v-40v-122v-34v-19q-3 -15 -12 -28l-1 -2t-2 -3q-5 -5 -10 -11l-4 -4q-5 -5 -11 -9q-25 -19 -43 -27l-7 -3q-3 -2 -9.5 -4.5t-8.5 -3.5q-5 -2 -26 -10q-26 -9 -48 -14q-8 -2 -60 -11
q-7 -1 -19.5 -2.5t-14.5 -2.5h-2.5h-1.5q-4 -1 -12 -1.5t-12 -0.5q-2 -1 -6 -1h-6q-3 -1 -8.5 -1h-7.5q-4 0 -12 -0.5t-11 -0.5h-23h-22q-16 1 -17 1h-6q-5 1 -15.5 1t-15.5 1q-1 0 -3.5 0.5t-4.5 0.5q-6 1 -17.5 2t-17.5 2q-1 0 -4.5 0.5t-5.5 0.5q-4 1 -13.5 2.5
t-14.5 1.5q-61 14 -72 18q-3 1 -12 3.5t-14 4.5t-15 6.5t-15 6.5q-2 0 -10 5q-3 1 -7 3l-4 2q-7 3 -20 13q-19 13 -26 22q-1 0 -2.5 1.5t-1.5 2.5q-11 13 -15 21q-2 5 -4 11l-1 6v73v163v0zM135 310v0q2 -15 23 -30q35 -27 92 -45q23 -7 24 -8q2 -1 6.5 -2t6.5 -2
q2 0 5 -0.5t4 -1.5q3 0 10 -2t10 -3q1 0 3 -0.5t3 -0.5q2 0 7.5 -1.5t7.5 -1.5l15 -3l15 -3q6 -1 19 -2.5t18 -2.5q3 0 8 -0.5t8 -1.5h2h2q3 0 8.5 -0.5t7.5 -1.5q19 -1 29 -1q3 -1 7 -1h6h5h4h22h21h4.5h4.5q3 0 7 0.5t6 0.5q9 0 13 1h3h5.5t6.5 1q16 1 36 3q3 1 9.5 1.5
t9.5 1t14 2.5t17 3q2 0 7 1l15 3l15 3q3 1 22 6t28 8q23 6 40 14q1 0 3 0.5t3 1.5q5 2 16 7q1 0 2.5 0.5t2.5 1.5q28 15 41 24q14 10 20 21q2 4 2 4.5v1.5q1 3 1 4h1v-20v-40v-123v-33v-20q-3 -15 -12 -28l-1 -1.5t-2 -2.5l-10 -12q-3 -2 -4 -4q-6 -5 -11 -9
q-25 -19 -43 -27q-2 0 -7 -3q-3 -2 -9.5 -4.5t-8.5 -3.5q-6 -3 -26 -9q-26 -9 -48 -14q-12 -3 -60 -12q-31 -4 -34 -4l-4 -1q-4 0 -12 -1t-12 -1q-2 0 -6 -0.5t-6 -0.5h-8.5t-7.5 -1h-11h-12q-3 -1 -23 -1q-19 0 -22 1h-17h-2.5h-3.5q-4 1 -15 1.5t-16 0.5q-1 0 -4 0.5
t-4 0.5q-6 1 -17.5 2t-17.5 2q-4 1 -10 1q-14 3 -28 5q-62 14 -72 17l-12 4t-14 4q-23 10 -30 13l-10 5l-6 3t-5 3q-7 3 -20 12q-19 13 -26 22l-4 4q-11 14 -15 21l-4 12l-1 5v73v164v0z" />
    <glyph glyph-name="shili" unicode="&#xe64d;" 
d="M906 834h-788q-23 0 -39.5 -16.5t-16.5 -39.5v-788q0 -23 16.5 -39.5t39.5 -16.5h788q23 0 39.5 16.5t16.5 39.5v788q0 23 -16.5 39.5t-39.5 16.5zM343 103h-112v112h112v-112zM343 328h-112v112h112v-112zM343 553h-112v112h112v-112zM568 103h-112v112h112v-112z
M568 328h-112v112h112v-112zM568 553h-112v112h112v-112zM793 328h-112v112h112v-112zM793 553h-112v112h112v-112z" />
    <glyph glyph-name="tuichuquanping" unicode="&#xe62b;" 
d="M484 817q0 19 -14 33t-33.5 14t-33 -14t-13.5 -33v-240l-221 201q-15 13 -34.5 11.5t-32.5 -16t-11.5 -34t15.5 -32.5l212 -192h-225q-20 0 -33.5 -14t-13.5 -33.5t13.5 -33.5t33.5 -14h344q20 0 34 14t14 34q0 3 -1 6v343zM978 300.5q0 19.5 -13.5 33.5t-33.5 14h-344
q-12 0 -22 -6q-11 -2 -18 -10.5t-7 -20.5v-4q-1 -3 -1 -6.5t1 -6.5v-358q0 -13 9 -22.5t23 -9.5h31q13 0 22 9.5t9 22.5v255l221 -201q15 -13 34.5 -11.5t32.5 16t11.5 34t-15.5 32.5l-212 192h225q20 0 33.5 14t13.5 33.5z" />
    <glyph glyph-name="quanpingbofang" unicode="&#xe62f;" 
d="M464 501l-217 197h231q20 0 34.5 14.5t14.5 34.5t-14.5 34t-34.5 14h-354q-20 0 -34 -14t-14 -34v-7v-352q0 -20 14.5 -34t34.5 -14t34 14t14 34v246l227 -206q15 -13 35.5 -12t33.5 16t12 35t-17 34zM948 28v352q0 20 -14.5 34t-34.5 14t-34 -14t-14 -34v-246l-227 206
q-15 13 -35.5 12t-33.5 -16t-12 -35t17 -34l217 -197h-231q-20 0 -34.5 -14.5t-14.5 -34.5t14.5 -34t34.5 -14h354q20 0 34 14t14 34v7z" />
    <glyph glyph-name="tubiao03" unicode="&#xe625;" 
d="M922 -67h-820q-22 0 -37.5 15.5t-15.5 37.5v796q0 22 15.5 37.5t37.5 15.5h820q22 0 37.5 -15.5t15.5 -37.5v-796q0 -22 -15.5 -37.5t-37.5 -15.5zM102 803q-9 0 -15 -6t-6 -15v-796q0 -9 6 -15t15 -6h820q9 0 15 6t6 15v796q0 9 -6 15t-15 6h-820zM874 469l-193 -193
l-193 193h386z" />
    <glyph glyph-name="shenqingxiangqing" unicode="&#xe667;" 
d="M841 758h-76v38q0 15 -11 26.5t-26.5 11.5t-26.5 -11.5t-11 -26.5v-38h-302v38q0 15 -11 26.5t-26.5 11.5t-26.5 -11.5t-11 -26.5v-38h-76q-31 0 -53 -22t-22 -53v-679q0 -31 22 -53t53 -22h604q31 0 53 22t22 53v679q0 31 -22 53t-53 22zM577 79h-264q-16 0 -27 11
t-11 27t11 27t27 11h264q15 0 26 -11t11 -27t-11 -27t-26 -11zM577 306h-264q-16 0 -27 11t-11 26.5t11 26.5t27 11h264q15 0 26 -11t11 -26.5t-11 -26.5t-26 -11zM690 532h-377q-16 0 -27 11t-11 26.5t11 26.5t27 11h377q15 0 26 -11t11 -26.5t-11 -26.5t-26 -11z" />
    <glyph glyph-name="xuanze1" unicode="&#xe615;" 
d="M511 833q-91 0 -174 -35.5t-143 -95.5t-95.5 -143t-35.5 -174t35.5 -174t95.5 -143t143 -95.5t174 -35.5t174 35.5t143 95.5t95.5 143t35.5 174t-35.5 174t-95.5 143t-143 95.5t-174 35.5v0zM752 499l-303 -303q-10 -11 -23 2l-20 20v0l-136 136q-5 5 -5 12t5 13l37 37
q5 5 12.5 5t12.5 -5l107 -107l252 252q11 11 23 -1l37 -38q12 -12 1 -23v0zM752 499z" />
    <glyph glyph-name="jibenxinxi01" unicode="&#xe60a;" 
d="M837 722v0h-191q-10 55 -56 86t-101 21q-41 -8 -70 -37t-37 -70h-190q-36 0 -61.5 -25.5t-25.5 -61.5v-607q0 -36 25.5 -61.5t61.5 -25.5h645q35 0 60.5 25.5t25.5 61.5v607q0 36 -25.5 61.5t-60.5 25.5zM465 722q10 20 32 27t42.5 -3.5t27.5 -32.5t-4 -42.5t-32.5 -27
t-42.5 3.5q-30 16 -30 50q0 13 7 25zM514 551v0q58 0 99 -40.5t41 -98.5t-41 -99t-99 -41t-99 41t-41 98.5t41 98.5t99 41zM852 25v0h-675v34v0q58 80 146.5 126.5t191 46.5t191 -46.5t146.5 -126.5v0v-34v0z" />
    <glyph glyph-name="message-copy" unicode="&#xe610;" 
d="M737 496q-23 0 -39.5 -16t-16.5 -39.5t16.5 -40t39.5 -16.5t39.5 16.5t16.5 40t-16.5 39.5t-39.5 16v0zM512 103q-47 0 -95 10l-132 -80l1 131q-77 47 -122.5 119.5t-45.5 156.5q0 92 53 169.5t143.5 123t197.5 45.5t197.5 -45.5t143.5 -123t53 -169t-53 -169.5
t-143.5 -123t-197.5 -45v0zM512 834q-122 0 -226 -52.5t-164 -143.5t-60 -198q0 -91 45 -171.5t124 -135.5v-199l197 120q43 -8 84 -8q122 0 226 53t164 143.5t60 197.5t-60 198t-164 143.5t-226 52.5v0zM287 496q-23 0 -39.5 -16t-16.5 -39.5t16.5 -40t39.5 -16.5
t39.5 16.5t16.5 40t-16.5 39.5t-39.5 16v0zM512 496q-23 0 -39.5 -16t-16.5 -39.5t16.5 -40t39.5 -16.5t39.5 16.5t16.5 40t-16.5 39.5t-39.5 16v0z" />
    <glyph glyph-name="liucheng" unicode="&#xe64f;" 
d="M39 398l187 -192l198 192l-198 193zM964 568v245h-370v-81h-163v-654h162v-123h370v251h-370v-46h-80v492h81v-84h370z" />
    <glyph glyph-name="xuanze1" unicode="&#xe616;" 
d="M512 828q-91 0 -173 -35t-141.5 -94.5t-95 -142t-35.5 -172.5t35.5 -172t95 -141.5t141.5 -95t172.5 -35.5t172.5 35.5t141.5 95t95 141.5t35.5 172t-35.5 172.5t-95 142t-141.5 94.5t-172 35v0zM512 9q-102 0 -189 50t-137.5 136.5t-50.5 188.5t50.5 188.5t137.5 137
t189 50.5t188.5 -50.5t137 -137t50.5 -188.5t-50.5 -188.5t-137 -136.5t-188.5 -50v0z" />
    <glyph glyph-name="bianji" unicode="&#xe619;" 
d="M886 -72h-748q-11 0 -21 7h-1h-2q-10 0 -18 6q-11 10 -10 25l26 245q0 9 6 15l358 431q8 9 19 10q12 1 21 -7l210 -178q9 -8 10 -19.5t-6 -20.5l-357 -430q-6 -7 -14 -9l-69 -20h594h15t11 -1.5t9 -5.5t2 -11q0 -15 -10 -26t-25 -11v0v0zM791 514l-255 214l41 49
q35 42 89 42q41 0 72 -26l81 -69q36 -30 39.5 -77.5t-26.5 -83.5z" />
    <glyph glyph-name="fuxuankuang" unicode="&#xe627;" 
d="M917 -76h-800q-24 0 -41 17t-17 41v800q0 24 17 41t41 17h800q24 0 40.5 -17t16.5 -41v-800q0 -24 -16.5 -41t-40.5 -17zM117 801q-8 0 -13.5 -5.5t-5.5 -13.5v-800q0 -8 5.5 -13.5t13.5 -5.5h800q8 0 13.5 5.5t5.5 13.5v800q0 8 -5.5 13.5t-13.5 5.5h-800zM448 210
l84 79t168.5 158l84.5 79q6 6 6 14t-5.5 13.5t-13.5 5.5t-14 -5l-324 -303l-158 156q-6 6 -14 6t-13.5 -5.5t-5.5 -13.5t5 -14l172 -170q6 -5 14 -5.5t14 5.5z" />
    <glyph glyph-name="rectangle" unicode="&#xe654;" 
d="M837 693h-650q-45 0 -77 -32t-32 -77v-396q0 -45 32 -77t77 -32h650q45 0 77 32t32 77v396q0 45 -32 77t-77 32v0zM892 188q0 -23 -16 -39t-39 -16h-650q-23 0 -39 16t-16 39v396q0 23 16 39t39 16h650q23 0 39 -16t16 -39v-396zM892 188z" />
    <glyph glyph-name="gongzuo" unicode="&#xe604;" 
d="M846 633q0 22 -11.5 34t-23.5 13l-12 1h-573h-5t-11.5 -2.5t-15 -7t-11.5 -14.5t-5 -24v-48h668v48v0v0zM703 777h-382h-5t-11 -3t-14.5 -7.5t-11.5 -14t-5 -23.5h477q-6 42 -48 48v0v0zM942 585l-28 29v-77h-803v77l-28 -29q-4 -3 -13.5 -12t-12 -12t-8 -11.5t-6 -15.5
t-0.5 -18.5t3 -26.5q6 -33 38.5 -224t35.5 -207q2 -14 9.5 -24t14.5 -14.5t16 -7t12.5 -2.5h5.5v0h668h5.5t12.5 2.5t16.5 7t14.5 14.5t10 24q3 17 35.5 207.5t38.5 223.5q3 15 3 26.5t-1 18.5t-6 15.5t-8 11.5t-12.5 12t-12.5 12v0v0zM703 326v-5t-3 -11.5t-7.5 -14.5
t-14 -11.5t-23.5 -5.5h-286q-21 0 -33 12t-13 24l-2 12v96h67v-76h248v76h67v-96v0v0zM703 326z" />
    <glyph glyph-name="yingyongxian" unicode="&#xe669;" 
d="M381 770q17 0 17 -17v-238q0 -17 -17 -17h-238q-7 0 -12 5t-5 12v238q0 17 17 17h238zM381 838h-238q-35 0 -60 -25t-25 -60v-238q0 -35 25 -60t60 -25h238q35 0 60 25t25 60v238q0 35 -25 60t-60 25v0zM881 770q17 0 17 -17v-238q0 -7 -5.5 -12t-11.5 -5h-238
q-17 0 -17 17v238q0 17 17 17h238zM881 838h-238q-35 0 -60 -25t-25 -60v-238q0 -35 25 -60t60 -25h238q34 0 59.5 25t25.5 60v238q0 35 -25 60t-60 25v0zM381 270q17 0 17 -17v-238q0 -6 -5 -11.5t-12 -5.5h-238q-7 0 -12 5t-5 12v238q0 7 5 12t12 5h238zM381 338h-238
q-35 0 -60 -25t-25 -60v-238q0 -35 25 -60t60 -25h238q35 0 60 25.5t25 59.5v238q0 35 -25 60t-60 25v0zM881 270q17 0 17 -17v-238q0 -6 -5.5 -11.5t-11.5 -5.5h-238q-17 0 -17 17v238q0 17 17 17h238zM881 338h-238q-35 0 -60 -25t-25 -60v-238q0 -35 25 -60t60 -25h238
q34 0 59.5 25.5t25.5 59.5v238q0 35 -25 60t-60 25v0z" />
    <glyph glyph-name="yonghu2" unicode="&#xe60f;" 
d="M863 236q-24 -58 -66 -105q-17 85 -79 147q-42 42 -97 64q65 53 65 136q0 72 -51 123t-123 51t-123 -51t-51 -123q0 -83 65 -136q-55 -22 -97 -64q-62 -62 -79 -147q-42 47 -66 105q-30 70 -30 148t30 148q29 69 81.5 121.5t121.5 81.5q70 30 148 30t148 -30
q69 -29 121.5 -81.5t81.5 -121.5q30 -70 30 -148t-30 -148zM397 478.5q0 47.5 33.5 81t81 33.5t81.5 -33.5t34 -81t-34 -81.5t-81.5 -34t-81 34t-33.5 81.5zM660 33q-70 -30 -148 -30t-148 30q-45 19 -83 48q3 91 67 155q68 68 164 68t164 -68q64 -64 67 -155
q-38 -29 -83 -48zM918 555q-34 80 -94.5 140.5t-140.5 94.5q-81 34 -171 34t-171 -34q-80 -34 -140.5 -94.5t-94.5 -140.5q-34 -81 -34 -171t34 -171q34 -80 94.5 -140.5t140.5 -94.5q81 -34 171 -34t171 34q80 34 140.5 94.5t94.5 140.5q34 81 34 171t-34 171z" />
    <glyph glyph-name="kongjianshujuqixialakuang" unicode="&#xe62a;" 
d="M185 647h120v-60h-120v60zM245 407h120v-60h-120v60zM245 167h120v-60h-120v60zM545 707h-180v-180h180v180zM485 587h-60v60h60v-60zM425 287h180v180h-180v-180zM485 407h60v-60h-60v60zM425 47h180v180h-180v-180zM485 167h60v-60h-60v60zM665 827h-600v-900h900v900
h-300zM125 -13v780h540v-780h-540zM905 -13h-180v180h180v-180zM905 227h-180v300h180v-300zM905 587h-180v180h180v-180zM785 707h60v-60h-60v60zM785 107h60v-60h-60v60z" />
    <glyph glyph-name="compute" unicode="&#xe63b;" horiz-adv-x="1025" 
d="M918 125h-275v-71l58 -58v-14h-378v14l58 58v71h-275q-18 0 -31 13t-13 31v574q0 18 13 30.5t31 12.5h812q19 0 31.5 -12.5t12.5 -30.5v-574q0 -18 -12.5 -31t-31.5 -13v0zM904 729h-784v-489h784v489z" />
    <glyph glyph-name="bumenshu" unicode="&#xe628;" 
d="M215 359h607v-108h32v140h-317v84h-42v-84h-312v-140h32v108zM630 762v-222h-223v222h213h10zM620 790h-203q-16 0 -27 -11t-11 -27v-203q0 -15 11 -26t27 -11h203q16 0 27 11t11 26v203q0 16 -11 27t-27 11v0zM279 168v0v0v-168h-171v168h171zM279 199h-171
q-13 0 -22 -9t-9 -22v-168q0 -13 9 -22t22 -9h171q13 0 22.5 9t9.5 22v168q0 13 -9.5 22t-22.5 9v0zM930 168v0v0v-168h-171v168h171zM925 199h-171q-13 0 -22 -9t-9 -22v-168q0 -13 9 -22t22 -9h171q13 0 22 9t9 22v168q0 13 -9 22t-22 9v0zM611 168v0v0v-168h-171v168h171
zM606 199h-171q-13 0 -22 -9t-9 -22v-168q0 -13 9 -22t22 -9h171q13 0 22 9t9 22v168q0 13 -9 22t-22 9v0z" />
    <glyph glyph-name="jiantou-copy" unicode="&#xe655;" 
d="M78 346h734l-187 -180q-9 -9 0 -18l37 -37q9 -9 18 0l235 227h1l2 2l36 35q4 4 3 9q1 5 -3 9l-38 37v0l-236 227q-9 9 -18 0l-37 -37q-9 -9 0 -18l185 -178h-732q-5 0 -8.5 -3.5t-3.5 -9.5v-53q0 -5 3.5 -8.5t8.5 -3.5v0z" />
    <glyph glyph-name="xia1" unicode="&#xe645;" 
d="M950 412l-2 -3q-6 -7 -11 -11l-382 -362l-2 -1q-20 -17 -39.5 -17t-39.5 17l-388 365l-5 5l-2 3q-13 16 -13 35q0 24 17 41t41 17h202l1 144q0 44 30.5 74.5t73.5 30.5h164q43 0 74 -30.5t31 -74.5l-1 -144h204q24 0 40.5 -17t16.5 -41q0 -16 -10 -31z" />
    <glyph glyph-name="shang" unicode="&#xe646;" 
d="M950 356l-2 3q-6 7 -11 11l-382 362l-2 1q-20 17 -39.5 17t-39.5 -17l-388 -365l-5 -5l-2 -3q-13 -16 -13 -36q0 -23 17 -40t41 -17h202l1 -144q0 -44 30.5 -74.5t73.5 -30.5h164q43 0 74 30.5t31 74.5l-1 144h204q24 0 40.5 17t16.5 40q0 17 -10 32z" />
    <glyph glyph-name="1392buttonanniu" unicode="&#xe62c;" 
d="M907 817h-792q-13 0 -22 -9t-9 -22v-461q0 -13 9 -22t22 -9h82v35h-78v453h784v-453h-83v-35h87q13 0 22 9t9 22v461q0 13 -9 22t-22 9zM723 346h-2q-17 0 -32 -10q-7 20 -23 32t-36 12q-19 0 -35 -10q-6 19 -22 31t-36 12q-17 0 -31 -7v64q0 27 -18 45.5t-44.5 18.5
t-45 -18.5t-18.5 -45.5v-248l-40 39q-19 18 -46.5 17.5t-44.5 -17.5q-11 -11 -17.5 -27t-4 -34.5t17.5 -33.5l179 -178q6 -6 12 -10q27 -21 60.5 -31.5t89.5 -10.5q53 0 90.5 11.5t58 29.5t32 48.5t14.5 59t3 69.5v128q0 27 -17.5 45.5t-43.5 18.5v0v0zM751 154
q0 -22 -0.5 -33.5t-2 -30.5t-4 -29.5t-8.5 -25.5t-14 -22.5t-20.5 -17.5t-28.5 -14.5t-38 -8t-49 -3.5q-95 0 -142 47l-171 169q-10 12 -9 24.5t10 22.5q10 9 24 9.5t23 -8.5q30 -30 56 -55l36 -37v323q0 12 9 21t22 9q12 0 20 -8.5t8 -21.5v-205h1q-1 -2 -1 -4q0 -7 5 -12
t12 -5t12 5t5 12v4v0v84q0 12 8.5 21t20.5 9q4 0 8.5 -1t13 -8.5t8.5 -20.5v-111v0v-4q0 -7 5 -12t12 -5t12 5t5 12v4v0v77q0 13 8 21.5t21 8.5q3 0 8 -1t13.5 -8.5t8.5 -20.5v-98h1q-1 -1 -1 -3q0 -7 5 -12t12 -5t12 5t5 12q0 2 -1 3h1v67q0 13 8.5 21.5t20.5 8.5
q3 0 8 -0.5t13.5 -8t8.5 -21.5v-124v0v0zM354 375v57q-8 19 -8 39q0 40 28.5 68.5t68.5 28.5t68.5 -28.5t28.5 -68.5q0 -10 -2 -21q18 -1 31 -14q5 18 5 35q0 54 -38.5 92.5t-92.5 38.5t-92.5 -38.5t-38.5 -92.5q0 -57 42 -96v0v0zM354 375z" />
    <glyph glyph-name="1403shukongjian" unicode="&#xe62d;" 
d="M117 811h358v-214h-358v214zM908 388v108h-433v-38h-205v139h-32v-597h32v0h205v-38h433v108h-433v-38h-205v183h205v-38h433v108h-433v-38h-205v179h205v-38h433z" />
    <glyph glyph-name="1405xialakuangkongjian" unicode="&#xe62e;" 
d="M69 774h885v-263h-885v263zM69 564h33v-566h-33v566zM90 31h864v-33h-864v33zM189 426h480v-33h-480v33zM189 307h480v-33h-480v33zM189 196h339v-33h-339v33zM765 221v-190h189v190h-189zM906 144l-37 -63q-5 -8 -9 0l-37 63q-4 8 5 8h73q9 0 5 -8zM765 432v-190h189
v190h-189zM896 300h-73q-9 0 -5 8l37 63q4 8 9 0l36 -63q5 -8 -4 -8z" />
    <glyph glyph-name="zuo" unicode="&#xe642;" 
d="M63 382l448 451l84 -84l-302 -301h666v-128h-666l302 -299l-84 -84z" />
    <glyph glyph-name="icon-arrow-right4" unicode="&#xe643;" 
d="M511 -63l-84 84l303 299h-666v128h666l-303 301l84 84l448 -449l-448 -447v0z" />
    <glyph glyph-name="16cidianicon" unicode="&#xe637;" 
d="M932 106v698h-8h-712q-20 0 -39 -6q-37 -11 -59 -42t-22 -71v-606v-8q2 -74 49 -110q34 -26 79 -26h711v3h1v64q-30 18 -30 52t30 52zM859 -6h-647q-25 0 -42.5 17.5t-17.5 42.5t17.5 42.5t42.5 17.5h647q-17 -29 -17 -60t17 -60zM872 174h-11h-614q-22 0 -34 -0.5
t-30 -5t-32 -13.5v11v519q0 25 16.5 43t46.5 18h649h9v-572zM272 624h480v-60h-480v60zM272 414h480v-60h-480v60z" />
    <glyph glyph-name="tongbusynchronization2" unicode="&#xe66e;" 
d="M513 581q-125 0 -213.5 -88.5t-88.5 -213.5t88.5 -213.5t213.5 -88.5t214 88.5t89 213.5t-89 213.5t-214 88.5zM513.5 44q-97.5 0 -166.5 69t-69 166t69 166t166.5 69t166.5 -69t69 -166t-69 -166t-166.5 -69zM815 691q-11 1 -18 10q-31 42 -78 65.5t-99 23.5h-13
q-9 0 -17 5q-65 50 -148 50q-72 0 -132.5 -38.5t-90.5 -102.5q-6 -13 -19 -15q-81 -11 -135 -73t-54 -144q0 -74 44.5 -132.5t113.5 -78.5v18q0 93 46 172.5t125.5 126t173 46.5t173 -46.5t125.5 -126t46 -172.5v-18q69 20 113.5 78.5t44.5 132.5q0 86 -58 149t-143 70z
M512 434v13q0 9 -7.5 12.5t-14.5 -1.5l-62 -47q-5 -4 -5 -11t5 -11l62 -47q7 -5 14.5 -1t7.5 12v12q40 -4 69 -30.5t36 -64.5q1 -9 7.5 -14t14.5 -5h23q11 0 17.5 7.5t5.5 18.5q-10 64 -58.5 108.5t-114.5 48.5zM596 168l-62 47q-7 5 -14.5 1t-7.5 -12v-12q-40 4 -69 30.5
t-36 64.5q-1 9 -7.5 14t-14.5 5h-23q-11 0 -17.5 -7.5t-5.5 -18.5q10 -64 58.5 -108.5t114.5 -48.5v-13q0 -9 7.5 -12.5t14.5 1.5l62 47q5 4 5 11t-5 11z" />
    <glyph glyph-name="you" unicode="&#xe664;" 
d="M716 400q-2 3 -5 6l-360 360q-9 9 -21.5 9t-21.5 -9v0q-9 -9 -9 -21.5t9 -21.5l339 -339l-339 -339q-9 -9 -9 -21.5t9 -21.5v0q9 -9 22 -9t22 9l360 360q17 17 4 38z" />
    <glyph glyph-name="dengluyezhanghao" unicode="&#xe632;" 
d="M872 -58q-11 0 -20 8t-9 19v0q-10 128 -105 216t-225 88t-225.5 -88t-105.5 -216v0q0 -11 -8.5 -19t-20 -8t-20 8t-7.5 19q0 1 2 11q11 113 81 200.5t174 124.5q-66 35 -106 100.5t-40 143.5q0 114 81 195t195.5 81t195 -81t80.5 -195q0 -78 -40 -143t-106 -101
q104 -37 173.5 -125t81.5 -200q1 -2 1 -11q0 -12 -7.5 -19.5t-19.5 -7.5zM735 550q0 92 -65.5 157t-156.5 65t-156 -65t-65 -157t64.5 -156.5t156.5 -64.5t157 64.5t65 156.5z" />
    <glyph glyph-name="hebing" unicode="&#xe652;" 
d="M861 832h-698q-41 0 -70 -29t-29 -70v-698q0 -41 29 -70t70 -29h698q41 0 70 29t29 70v698q0 41 -29 70t-70 29zM153 685h173q3 -5 35.5 -61t63.5 -109l30 -53l-43 -56l-121 210h-138q-14 0 -24 8.5t-10 22.5q0 15 10 26.5t24 11.5zM909 382l-146 -110q-8 -8 -26.5 -10
t-26.5 5v87h-178l-206 -271h-173q-14 0 -24 11.5t-10 25.5t10 23t24 9h138l207 271h212v9v95q8 8 26.5 9t26.5 -6l146 -111q8 -7 8 -18t-8 -19z" />
    <glyph glyph-name="yulan" unicode="&#xe630;" 
d="M512 640q-74 0 -146 -27.5t-123 -66t-90.5 -77.5t-60 -65.5t-19.5 -27.5q3 -5 10 -14.5t30.5 -37t49 -52.5t65.5 -55.5t81.5 -52.5t95 -37t107.5 -15q74 0 146.5 27.5t123 65.5t90.5 78t60 65.5t20 27.5q-4 6 -11 15.5t-30.5 36.5t-49 52t-65.5 55.5t-81.5 52.5t-95 37
t-107.5 15v0zM512 202q-72 0 -123.5 51.5t-51.5 124t51.5 123.5t124 51t123.5 -51t51 -123.5t-51 -124t-124 -51.5v0zM424 377q0 -37 25.5 -62.5t62 -25.5t62 25.5t25.5 62t-25.5 62t-62 25.5t-61.5 -25q-26 -26 -26 -62v0z" />
    <glyph glyph-name="huan" unicode="&#xe606;" 
d="M803 511h144q8 0 11 15q2 5 0.5 11.5t-3.5 9.5l-2 4q-1 1 -20.5 28t-45.5 64.5t-52.5 75t-45 63l-18.5 25.5q-12 24 -36 24q-10 0 -18.5 -4t-11.5 -8l-3 -5l-176 -258q-1 -2 -2 -5t-2 -11.5t1 -13.5q1 -7 4.5 -10.5t6.5 -4.5h3h135v-251q-1 -8 -3 -21.5t-10.5 -47.5
t-19 -60.5t-28.5 -47.5t-38 -21q4 0 12.5 0.5t32.5 4.5t45.5 11.5t48 23t45.5 36t32.5 54t13.5 74.5v245zM218 254h-145q-9 -3 -11 -19q-1 -10 6 -20q182 -257 181 -257q13 -24 37 -24q10 0 18.5 4.5t11.5 8.5l3 4l177 259q0 1 1 3t2.5 9t-1.5 13q-2 8 -5.5 13t-5.5 5l-3 1
h-135v252q1 9 3 22t10.5 47.5t19 60.5t28.5 47.5t38 21.5q-4 0 -12.5 -0.5t-32.5 -5t-45.5 -11.5t-48 -22.5t-46 -36.5t-32.5 -54.5t-13 -74.5v-246z" />
    <glyph glyph-name="rizhichaxun20" unicode="&#xe638;" 
d="M368 719h336v-96h-336v96zM368 575h336v-96h-336v96zM920 -11l-67 67q38 62 38 135q0 100 -69.5 170t-170.5 70t-170.5 -70t-69.5 -170.5t69.5 -170t170.5 -69.5q73 0 135 38l62 -67zM464 186q0 79 56.5 135.5t135.5 56.5t135.5 -56.5t56.5 -135.5t-56.5 -135.5
t-135.5 -56.5t-135.5 56.5t-56.5 135.5v0zM128 815v-768h240v48h-96v672h528v-288h48v336h-720z" />
    <glyph glyph-name="baocun" unicode="&#xe64c;" 
d="M947 664q0 26 -9 37v0l-91 92v0q-13 13 -37 13h-635q-38 0 -58 -19.5t-20 -52.5v-706q0 -35 21 -56t58 -21h708q30 0 46.5 18.5t16.5 45.5v666v-17zM752 519q0 -11 -8 -18.5t-19 -7.5h-452q-16 0 -25.5 9t-9.5 22v167q0 13 10 22t25 9h444q33 0 35 -33v-170zM751 7h-512
v240q0 46 47 46h419q46 -1 46 -46v-240z" />
    <glyph glyph-name="reset" unicode="&#xe66d;" 
d="M771 676q-58 57 -134 89.5t-161 32.5q-171 0 -292.5 -121t-121.5 -293t121.5 -293t292.5 -121q152 0 267.5 99t142.5 247h-140q-25 -91 -99 -150t-167 -59q-114 0 -196 81t-82 196q0 114 81 195.5t197 81.5q111 0 194 -83l-126 -126h346v346z" />
    <glyph glyph-name="danxuan" unicode="&#xe629;" 
d="M512 807q115 0 212.5 -57t154.5 -154.5t57 -212t-57 -212.5t-154.5 -154.5t-212.5 -56.5t-212.5 56.5t-154 154.5t-56.5 212.5t56.5 212t154 154.5t212.5 57zM512 832v0q-91 0 -174 -35.5t-143 -95.5t-95.5 -143t-35.5 -174.5t35.5 -174.5t95.5 -143t143 -95t174 -35v0
q91 0 174 35t143.5 95t96 143t35.5 174.5t-35.5 174.5t-96 143t-143.5 95.5t-174 35.5v0zM779 384q0 108 -76.5 184.5t-184.5 76.5v0q-108 0 -184.5 -76.5t-76.5 -184.5v0q0 -108 76.5 -184.5t184.5 -76.5v0q108 0 184.5 76.5t76.5 184.5v0z" />
    <glyph glyph-name="moxing" unicode="&#xe605;" 
d="M961 236v-160q0 -21 -14.5 -35t-34.5 -14h-161q-20 0 -34 14t-14 35v160q0 21 14 35t34 14h49v96h-258v-96h49q20 0 34 -14.5t14 -34.5v-160q0 -21 -14 -35t-34 -14h-161q-20 0 -34.5 14t-14.5 35v160q0 21 14.5 35t34.5 14h48v96h-257v-96h48q20 0 34 -14.5t14 -34.5
v-160q0 -21 -14 -35t-34 -14h-161q-20 0 -34 14t-14 35v160q0 21 14 35t34 14h48v96q0 26 19 45.5t46 19.5h257v96h-48q-20 0 -34.5 14t-14.5 34v161q0 20 14.5 34t34.5 14h161q20 0 34 -14t14 -34v-161q0 -20 -14 -34t-34 -14h-49v-96h258q26 0 45 -19.5t19 -45.5v-96h48
q20 0 34.5 -14.5t14.5 -34.5z" />
    <glyph glyph-name="zhanghao" unicode="&#xe634;" 
d="M917 -23v2v2q0 4 -1 9q-14 108 -79.5 193.5t-163.5 128.5q57 39 90.5 101t33.5 134q0 118 -83.5 201.5t-201.5 83.5t-201.5 -83.5t-83.5 -201.5q0 -72 33.5 -134t90.5 -101q-97 -42 -162 -126.5t-80 -191.5q-2 -6 -2 -13v-4v0v0v0q0 -17 12 -29t29 -12t28.5 12t11.5 29v0
h1q14 117 100.5 198t204.5 87h18h18q118 -6 204.5 -87t100.5 -198h1v0q0 -17 12 -29t28.5 -12t28.5 12t12 29v0v0zM308 547q0 84 60 143.5t144 59.5t143.5 -59.5t59.5 -143.5q0 -79 -53 -137t-131 -66q-9 1 -19 1t-19 -1q-78 7 -131.5 65.5t-53.5 137.5z" />
    <glyph glyph-name="tianjia1" unicode="&#xe63c;" horiz-adv-x="1025" 
d="M512 -66q-186 0 -318 132t-132 318t132 318t318 132q92 0 175 -35.5t143.5 -96t96 -143.5t35.5 -175t-35.5 -175t-96 -143.5t-143.5 -96t-175 -35.5zM737 429h-180v180h-90v-180h-180v-90h180v-180h90v180h180v90v0z" />
    <glyph glyph-name="25" unicode="&#xe66a;" 
d="M335 507h-164q-11 0 -19 -8t-8 -20v-163q0 -11 8 -19t19 -8h164q11 0 19 8t8 19v163q0 12 -8 20t-19 8zM321 316h-136q-12 0 -13 1t-1 12v137q0 11 1 12t13 1h136q11 0 12.5 -1t1.5 -12v-137q0 -11 -1.5 -12t-12.5 -1zM430 357h423v27h-423v-27zM430 248h423v27h-423v-27
zM430 125h423v27h-423v-27zM430 479h423v28h-423v-28zM935 684h-14v109q0 11 -8 19t-19 8h-150q-11 0 -19 -8t-8 -19v-109h-123v109q0 11 -8 19t-19 8h-150q-12 0 -20 -8t-8 -19v-109h-109v109q0 11 -8 19t-19 8h-164q-11 0 -19 -8t-8 -19v-832q0 -11 8 -19t19 -8h846
q11 0 19 8t8 19v696q0 11 -8 19t-19 8zM935 -11q0 -12 -8 -20t-20 -8h-790q-12 0 -20 8t-8 20v777q0 11 8 19t20 8h109q11 0 19 -8t8 -19v-109h654q12 0 20 -8t8 -20v-640v0z" />
    <glyph glyph-name="jiajiajia" unicode="&#xe65c;" 
d="M917 834h-810q-19 0 -32 -13t-13 -32v-810q0 -19 13 -32t32 -13h810q19 0 32 13t13 32v810q0 19 -13 32t-32 13zM723 355h-182v-182h-60v182h-181v60h181v181h60v-181h182v-60z" />
    <glyph glyph-name="jianjianjian" unicode="&#xe65d;" 
d="M917 834h-810q-19 0 -32 -13t-13 -32v-810q0 -19 13 -32t32 -13h810q19 0 32 13t13 32v810q0 19 -13 32t-32 13zM726 352h-425v61h425v-61v0z" />
    <glyph glyph-name="xia-copy" unicode="&#xe64a;" 
d="M153 665h722q30 0 51 -21t21 -50q0 -27 -18 -47l-357 -470q-18 -23 -47.5 -27t-53.5 13q-8 7 -14 14l-361 475q-18 23 -13.5 52t27.5 47q19 14 43 14v0v0v0v0zM153 665z" />
    <glyph glyph-name="youjiantou" unicode="&#xe647;" 
d="M240 206l125 -1q14 0 23.5 -9.5t9.5 -23.5v-65q0 -27 19 -46t46 -19q21 0 39 13v0l327 271q24 24 24 58t-24 58l-327 272q-18 12 -39 12q-27 0 -46 -19t-19 -46v-65q0 -13 -9.5 -23t-23.5 -10h-125q-26 0 -45 -19t-19 -46v-227q0 -27 19 -46t45 -19z" />
    <glyph glyph-name="you1" unicode="&#xe61a;" 
d="M255 -48q265 180 557 378q37 25 35.5 55.5t-39.5 56.5q-13 9 -240.5 164t-309.5 210q-38 23 -60 12.5t-22 -40.5v-808q0 -29 21.5 -39.5t57.5 11.5z" />
    <glyph glyph-name="zuo1" unicode="&#xe61b;" 
d="M768 -48q-66 45 -275.5 187.5t-280.5 190.5q-37 25 -36 55.5t40 56.5q227 155 549 374q38 23 60.5 12.5t22.5 -40.5v-808q0 -29 -21.5 -39.5t-58.5 11.5z" />
    <glyph glyph-name="jiaoseguanli2" unicode="&#xe639;" 
d="M721.5 247q-36.5 0 -62.5 -26t-26 -62.5t26 -62.5t62.5 -26t62.5 26t26 62.5t-26 62.5t-62.5 26zM721.5 116q-17.5 0 -30 12.5t-12.5 30t12.5 30t30 12.5t30 -12.5t12.5 -30t-12.5 -30t-30 -12.5zM954 205q-2 13 -10 20.5t-18 7.5h-2q-21 0 -35.5 15t-14.5 35q0 9 4 19
q5 11 1.5 24t-15.5 21l-58 32q-7 3 -15 3q-16 0 -28 -11q-22 -23 -39.5 -23t-40.5 23q-11 12 -28 12q-7 0 -14 -3l-1 -1l-60 -32l-1 -1q-10 -7 -13.5 -19.5t1.5 -24.5q4 -10 4 -19q0 -20 -14.5 -35t-35.5 -15h-2q-11 0 -18.5 -7.5t-10.5 -20.5q-5 -27 -5 -47t5 -46
q3 -13 10.5 -21t18.5 -8h2q21 0 35.5 -14.5t14.5 -35.5q0 -9 -4 -19q-5 -11 -1.5 -24t14.5 -20l58 -32q6 -3 14 -3q17 0 28 12q23 24 41 24t41 -25q11 -12 29 -12q7 0 16 4l57 32l2 1q10 7 13.5 19.5t-1.5 23.5q-4 11 -4 19q0 21 14.5 35.5t35.5 14.5h2q10 0 18 8t10 21
q5 28 5 46q0 20 -5 47zM911 128q-35 -5 -59 -32t-24 -63q0 -13 5 -29l-41 -23q-9 8 -18 15q-28 21 -53 21t-53 -21q-9 -6 -17 -14l-40 22q6 16 6 29q0 36 -24 63t-59 32q-3 18 -3 30t3 31q35 4 59 31t24 63q0 14 -6 29l44 24q8 -8 17 -14q27 -20 52 -20q24 0 51 19
q9 6 17 14l41 -23q-5 -15 -5 -29q0 -36 24 -63t59 -31q3 -19 3 -31t-3 -30zM124 -1v50q0 126 86 219.5t211 105.5v0h1q16 1 31 1h2h2q88 7 122 38l14 11q42 33 65 79.5t23 98.5q0 94 -67 161t-161.5 67t-161.5 -67t-67 -161q0 -52 23 -98.5t65 -79.5l14 -11l-17 -7
q-111 -44 -177.5 -141.5t-66.5 -215.5v-80q0 -12 8.5 -20.5t20.5 -8.5h431q-22 27 -36 59h-365v0zM283 602.5q0 69.5 49.5 119t120 49.5t120 -49.5t49.5 -119t-49.5 -119t-120 -49.5t-120 49.5t-49.5 119z" />
    <glyph glyph-name="fugaiyuguang" unicode="&#xe657;" 
d="M904 253q10 44 10 88q0 70 -24 136q-22 63 -64 115q-73 92 -183 130q-9 47 -46 77.5t-85 30.5t-84.5 -30t-45.5 -76q-59 -20 -109.5 -57t-87.5 -87q-78 -107 -78 -239q0 -46 10 -90q-49 -40 -49 -103q0 -55 39 -94t94 -39q29 0 56 12q111 -89 253 -89q144 0 255 90
q27 -13 58 -13q55 0 94 39t39 94q0 65 -52 105v0v0zM308 69q26 35 26 79q0 55 -39 94t-94 39q-12 0 -24 -3q-6 32 -6 63q0 105 59 191t156 125q13 -41 47.5 -66.5t78.5 -25.5q43 0 78 25t48 65q95 -38 153 -123.5t58 -190.5q0 -31 -6 -62q-10 2 -20 2q-55 0 -94 -39t-39 -94
q0 -43 25 -77q-91 -69 -205 -69q-112 0 -202 67v0v0z" />
    <glyph glyph-name="zuoyou" unicode="&#xe61e;" 
d="M62 834v-900h408v900h-408zM373 31h-214v703h214v-703zM552 834v-900h408v900h-408zM865 31h-214v703h214v-703z" />
    <glyph glyph-name="shangxia" unicode="&#xe61f;" 
d="M962 834h-900v-408h900v408zM159 523v214h703v-214h-703zM962 344h-900v-408h900v408zM159 31v214h703v-214h-703z" />
    <glyph glyph-name="verify-code" unicode="&#xe648;" 
d="M929 612q-13 0 -22.5 9.5t-9.5 23.5q0 8 -6 14t-14 6h-730q-8 0 -14 -6t-6 -14q0 -14 -9.5 -23.5t-23 -9.5t-23 9.5t-9.5 23.5q0 35 25 60t60 25h730q35 0 60 -25t25 -60q0 -14 -9.5 -23.5t-22.5 -9.5h-1zM877 38h-730q-35 0 -60 25t-25 60q0 13 9.5 22.5t23 9.5t23 -9.5
t9.5 -22.5q0 -8 6 -14t14 -6h730q8 0 14 6t6 14q0 13 9.5 22.5t23 9.5t23 -9.5t9.5 -22.5q0 -35 -25 -60t-60 -25v0zM175 246v34h52v204l-57 -19l-3 36l79 27h19v-248h41v-34h-131zM408 402q-13 16 -13 43q0 36 25.5 59.5t65.5 23.5q41 0 66.5 -23t25.5 -63q0 -29 -15 -53
t-48 -54q-29 -23 -57 -55h124v-34h-189v18q46 51 99 100q46 42 46 78q0 23 -14 37t-38 14q-23 0 -37 -13t-14 -32q0 -17 10 -32zM702 316q24 -41 60 -41q25 0 40.5 14.5t15.5 37.5t-12.5 35t-34.5 12h-21v35h20q40 0 40 41q0 20 -13 31.5t-34 11.5q-35 0 -57 -44l-31 19
q28 60 88 60q39 0 62.5 -20.5t23.5 -54.5q0 -41 -37 -62q45 -17 45 -64q0 -40 -26.5 -64t-69.5 -24q-59 0 -90 54zM702 316z" />
    <glyph glyph-name="yingyong" unicode="&#xe611;" 
d="M852 724q14 0 24 -10t10 -24v-170q0 -14 -10 -24t-24 -10h-238v204q0 14 10 24t24 10h204zM376 724q14 0 24 -10t10 -24v-204h-238q-14 0 -24 10t-10 24v170q0 14 10 24t24 10h204zM852 282q14 0 24 -10t10 -24v-170q0 -14 -10 -24t-24 -10h-204q-14 0 -24 10t-10 24v204
h238zM410 282v-204q0 -14 -10 -24t-24 -10h-204q-14 0 -24 10t-10 24v170q0 14 10 24t24 10h238zM852 792h-204q-42 0 -72 -29.5t-30 -72.5v-272h306q43 0 72.5 30t29.5 72v170q0 43 -29.5 72.5t-72.5 29.5v0zM376 792h-204q-43 0 -72.5 -29.5t-29.5 -72.5v-170
q0 -42 29.5 -72t72.5 -30h306v272q0 43 -30 72.5t-72 29.5v0zM852 350h-306v-272q0 -43 30 -72.5t72 -29.5h204q43 0 72.5 29.5t29.5 72.5v170q0 42 -29.5 72t-72.5 30v0zM478 350h-306q-43 0 -72.5 -30t-29.5 -72v-170q0 -43 29.5 -72.5t72.5 -29.5h204q42 0 72 29.5
t30 72.5v272z" />
    <glyph glyph-name="mima" unicode="&#xe633;" 
d="M727 -61h-430q-49 0 -84.5 39.5t-35.5 94.5v301q0 56 35.5 95t84.5 39h430q49 0 84.5 -39t35.5 -95v-301q0 -55 -35.5 -94.5t-84.5 -39.5zM297 440q-21 0 -36 -19.5t-15 -46.5v-301q0 -27 15 -46.5t36 -19.5h430q21 0 36.5 19.5t15.5 46.5v301q0 27 -15.5 46.5
t-36.5 19.5h-430zM327 445q-14 0 -24 10t-10 24v130q0 91 64 155.5t155 64.5t155 -64.5t64 -155.5q0 -14 -10 -24t-24 -10t-24 10t-10 24q0 63 -44 107.5t-106.5 44.5t-107 -44.5t-44.5 -107.5v-130q0 -14 -10 -24t-24 -10z" />
    <glyph glyph-name="jieshu" unicode="&#xe658;" 
d="M512 -128q-139 0 -257 68.5t-186.5 186.5t-68.5 257t68.5 257t186.5 186.5t257 68.5t257 -68.5t186.5 -186.5t68.5 -257t-68.5 -257t-186.5 -186.5t-257 -68.5zM512 768q-159 0 -271.5 -112.5t-112.5 -271.5t112.5 -271.5t271.5 -112.5t271.5 112.5t112.5 271.5
t-112.5 271.5t-271.5 112.5zM640 192h-256q-26 0 -45 19t-19 45v256q0 26 19 45t45 19h256q26 0 45 -19t19 -45v-256q0 -26 -19 -45t-45 -19z" />
    <glyph glyph-name="1" unicode="&#xe662;" horiz-adv-x="1030" 
d="M865 -66h-703q-41 0 -70.5 29.5t-29.5 70.5v703q2 39 32 68t70 29h703q41 0 70.5 -29.5t29.5 -70.5v-703q-2 -39 -32 -68t-70 -29zM812 664q-5 2 -47 27t-82.5 48.5t-44.5 24.5q-7 3 -12.5 -1t-5.5 -11v-68h-143q-4 -5 -36.5 -61t-62.5 -109t-30 -54l43 -57l122 211h109
v-66q0 -8 6.5 -11.5t11.5 0.5q3 2 46 27t84 48.5t45 26.5q4 5 4 13.5t-7 11.5zM812 131q-5 3 -47 27.5t-82.5 48t-44.5 24.5q-7 3 -12.5 -0.5t-5.5 -10.5v-71h-109l-209 272h-188v-70h152l209 -272h142v-63q0 -8 6.5 -12t12.5 0q3 2 46 27t83.5 48.5t44.5 26.5q7 6 8 14
t-6 11z" />
  </font>
</defs>
</svg>
